<svg width="24" height="24" xmlns="http://www.w3.org/2000/svg"><path d="M20 0H4a4.005 4.005 0 0 0-4 4v16a4.005 4.005 0 0 0 4 4h16a4.005 4.005 0 0 0 4-4V4a4.005 4.005 0 0 0-4-4ZM7.5 18a1.5 1.5 0 1 1 0-3 1.5 1.5 0 0 1 0 3Zm0-9a1.5 1.5 0 1 1 0-3 1.5 1.5 0 0 1 0 3Zm4.5 4.5a1.5 1.5 0 1 1 0-3 1.5 1.5 0 0 1 0 3Zm4.5 4.5a1.5 1.5 0 1 1 0-3 1.5 1.5 0 0 1 0 3Zm0-9a1.5 1.5 0 1 1 0-3 1.5 1.5 0 0 1 0 3Z" fill="#202733"/><!-- Code injected by live-server -->
<script>
	// <![CDATA[  <-- For SVG support
	if ('WebSocket' in window) {
		(function () {
			function refreshCSS() {
				var sheets = [].slice.call(document.getElementsByTagName("link"));
				var head = document.getElementsByTagName("head")[0];
				for (var i = 0; i < sheets.length; ++i) {
					var elem = sheets[i];
					var parent = elem.parentElement || head;
					parent.removeChild(elem);
					var rel = elem.rel;
					if (elem.href && typeof rel != "string" || rel.length == 0 || rel.toLowerCase() == "stylesheet") {
						var url = elem.href.replace(/(&|\?)_cacheOverride=\d+/, '');
						elem.href = url + (url.indexOf('?') >= 0 ? '&' : '?') + '_cacheOverride=' + (new Date().valueOf());
					}
					parent.appendChild(elem);
				}
			}
			var protocol = window.location.protocol === 'http:' ? 'ws://' : 'wss://';
			var address = protocol + window.location.host + window.location.pathname + '/ws';
			var socket = new WebSocket(address);
			socket.onmessage = function (msg) {
				if (msg.data == 'reload') window.location.reload();
				else if (msg.data == 'refreshcss') refreshCSS();
			};
			if (sessionStorage && !sessionStorage.getItem('IsThisFirstTime_Log_From_LiveServer')) {
				console.log('Live reload enabled.');
				sessionStorage.setItem('IsThisFirstTime_Log_From_LiveServer', true);
			}
		})();
	}
	else {
		console.error('Upgrade your browser. This Browser is NOT supported WebSocket for Live-Reloading.');
	}
	// ]]>
</script>
</svg>